<svg xmlns="http://www.w3.org/2000/svg" width="384" height="358.59" viewBox="0 0 384 358.59">
  <defs>
    <style>
      .cls-1 {
        fill: #222;
        fill-rule: evenodd;
      }
    </style>
  </defs>
  <path id="bpreim1.svg" class="cls-1" d="M684,2679.76v57.33a8,8,0,0,1-8,7.99H604a7.99,7.99,0,1,1,0-15.98h64v-47.94H636a39.955,39.955,0,1,1,0-79.91h24c7.614,0,8-6.65,8-7.99v-47.94H610.012c-0.061,0-.121.01-0.182,0.01s-0.121-.01-0.182-0.01H396a32.334,32.334,0,0,1-16-4.15v60.08a8,8,0,0,1-16,0v-87.89c0-.02,0-0.05,0-0.07a31.627,31.627,0,0,1,31.972-31.89H444a7.99,7.99,0,1,1,0,15.98H395.976A15.626,15.626,0,0,0,380,2513.36c0,0.01,0,.02,0,0.02a15.638,15.638,0,0,0,16,15.96h16.108l130.554-75.71a24.052,24.052,0,0,1,32.807,8.7l38.953,67.01H636v-31.96H620a7.99,7.99,0,1,1,0-15.98h24a8,8,0,0,1,8,7.99v39.95h24a8,8,0,0,1,8,7.99v49.46c9.117,3.45,16,12.46,16,22.45v47.95A23.992,23.992,0,0,1,684,2679.76ZM561.632,2470.35a8.02,8.02,0,0,0-10.937-2.9l-106.723,61.89H595.921ZM684,2609.24a7.727,7.727,0,0,0-2.343-5.24c-3.474,7.48-10.772,13.23-21.657,13.23H636a23.975,23.975,0,1,0,0,47.95h40a8.008,8.008,0,0,0,8-7.99v-47.95ZM580,2645.2v143.82A20.011,20.011,0,0,1,560,2809H336a20.011,20.011,0,0,1-20-19.98V2645.2a20.009,20.009,0,0,1,20-19.97H560A20.009,20.009,0,0,1,580,2645.2Zm-248,0v143.82a4,4,0,0,0,4,4H560a4,4,0,0,0,4-4V2645.2a4,4,0,0,0-4-3.99H336A4,4,0,0,0,332,2645.2Zm200,123.85H516a7.99,7.99,0,1,1,0-15.98h16A7.99,7.99,0,1,1,532,2769.05Zm-48,0H468a7.99,7.99,0,1,1,0-15.98h16A7.99,7.99,0,1,1,484,2769.05Zm-64-39.95a31.661,31.661,0,0,1-16-4.36,31.664,31.664,0,0,1-16,4.36,31.96,31.96,0,1,1,0-63.92,31.664,31.664,0,0,1,16,4.36,31.661,31.661,0,0,1,16-4.36A31.96,31.96,0,1,1,420,2729.1Zm0-47.94a15.785,15.785,0,0,0-10.646,4.16,8,8,0,0,1-10.709,0A15.78,15.78,0,0,0,388,2681.16a15.98,15.98,0,1,0,0,31.96,15.782,15.782,0,0,0,10.645-4.17,8.018,8.018,0,0,1,10.709,0A15.787,15.787,0,0,0,420,2713.12,15.98,15.98,0,1,0,420,2681.16Zm-48,71.91h16a7.99,7.99,0,1,1,0,15.98H372A7.99,7.99,0,1,1,372,2753.07Zm48,0h16a7.99,7.99,0,1,1,0,15.98H420A7.99,7.99,0,1,1,420,2753.07Z" transform="translate(-316 -2450.41)"/>
</svg>

