<svg xmlns="http://www.w3.org/2000/svg" width="312" height="344" viewBox="0 0 312 344">
  <defs>
    <style>
      .cls-1 {
        fill: #222;
        fill-rule: evenodd;
      }
    </style>
  </defs>
  <path id="bpreim7.svg" class="cls-1" d="M2519,2954.39a154.757,154.757,0,0,1-49-8.05c-31.98,21.05-70.29,38.22-71.96,38.96a7.926,7.926,0,0,1-3.25.7,8.008,8.008,0,0,1-7.57-10.63c0.13-.36,12.04-34.98,19.23-69.09A155.068,155.068,0,0,1,2363,2798.19c0-86.12,69.98-156.19,156-156.19s156,70.07,156,156.19S2605.02,2954.39,2519,2954.39Zm0-296.37c-77.2,0-140,62.88-140,140.17a139.236,139.236,0,0,0,41.76,99.81,8,8,0,0,1,2.23,7.27c-4.25,21.34-10.41,42.95-14.89,57.52,14.92-7.37,37.36-19.14,56.28-31.95a7.975,7.975,0,0,1,7.2-.9,139.421,139.421,0,0,0,47.42,8.43c77.2,0,140-62.88,140-140.18S2596.2,2658.02,2519,2658.02Zm40,216.27a36.045,36.045,0,1,1,36-36.05A36.065,36.065,0,0,1,2559,2874.29Zm0-56.07a20.025,20.025,0,1,0,20,20.02A20.031,20.031,0,0,0,2559,2818.22Zm-98.21,43.01,104-128.16,12.42,10.1-104,128.16ZM2479,2802.2a36.045,36.045,0,1,1,36-36.05A36.065,36.065,0,0,1,2479,2802.2Zm0-56.07a20.025,20.025,0,1,0,20,20.02A20.031,20.031,0,0,0,2479,2746.13Z" transform="translate(-2363 -2642)"/>
</svg>

